<svg width="21" height="9" viewBox="0 0 21 9" fill="none" xmlns="http://www.w3.org/2000/svg">
<path d="M5.652 7.212L1.53482e-06 4.728V4.128L5.652 1.308V2.244L1.128 4.38L5.652 6.276V7.212ZM12.8072 8.604L11.7752 5.952H8.37919L7.35919 8.604H6.26719L9.61519 0H10.5872L13.9232 8.604H12.8072ZM10.4912 2.4C10.4672 2.336 10.4272 2.22 10.3712 2.052C10.3152 1.884 10.2592 1.712 10.2032 1.536C10.1552 1.352 10.1152 1.212 10.0832 1.116C10.0432 1.276 9.99919 1.44 9.95119 1.608C9.91119 1.768 9.86719 1.916 9.81919 2.052C9.77919 2.188 9.74319 2.304 9.71119 2.4L8.73919 4.992H11.4512L10.4912 2.4ZM14.5313 6.276L19.0553 4.392L14.5313 2.244V1.308L20.1833 4.128V4.728L14.5313 7.212V6.276Z" fill="black"/>
</svg>
